<svg width="74" height="63" viewBox="0 0 74 63" fill="none" xmlns="http://www.w3.org/2000/svg">
<path d="M40.6098 2.00743C38.6571 0.0548133 35.4913 0.0548135 33.5387 2.00743L1.71888 33.8272C-0.23374 35.7799 -0.23374 38.9457 1.71888 40.8983C3.6715 42.8509 6.83733 42.8509 8.78995 40.8983L37.0742 12.614L65.3585 40.8983C67.3111 42.8509 70.4769 42.8509 72.4296 40.8983C74.3822 38.9457 74.3822 35.7799 72.4296 33.8272L40.6098 2.00743ZM42.0742 6.54297L42.0742 5.54297L32.0742 5.54297L32.0742 6.54297L42.0742 6.54297Z" fill="#1E1E1E"/>
<path d="M39.1955 37.9461C38.024 36.7745 36.1245 36.7745 34.9529 37.9461L15.861 57.0379C14.6894 58.2095 14.6894 60.109 15.861 61.2806C17.0326 62.4522 18.9321 62.4522 20.1037 61.2806L37.0742 44.31L54.0448 61.2806C55.2164 62.4522 57.1158 62.4522 58.2874 61.2806C59.459 60.109 59.459 58.2095 58.2874 57.0379L39.1955 37.9461ZM40.0742 41.0674L40.0742 40.0674L34.0742 40.0674L34.0742 41.0674L40.0742 41.0674Z" fill="#1E1E1E"/>
</svg>
