<svg width="368" height="245" viewBox="0 0 368 245" fill="none" xmlns="http://www.w3.org/2000/svg">
<path d="M128.4 116.214L113.946 132.996L85.2535 166.301L56.6141 133.041L0.165039 67.5H57.5331L85.2981 99.7349L99.7606 82.9528L128.4 116.214Z" fill="#151518"/>
<path d="M367.835 67.5L311.663 132.951L283.05 166.301L254.464 132.996L240.064 116.214L268.677 82.8636L283.077 99.6457L310.673 67.5H367.835Z" fill="#151518"/>
<path d="M255.822 67.8835L227.201 101.225L198.258 67.4998L184.331 51.2708L170.35 67.4998L141.309 101.225L112.661 67.9727L113.072 67.4998L170.44 0.888672H198.33L255.492 67.4998L255.822 67.8835Z" fill="#151518"/>
<path d="M269.783 181.756L240.18 216.257L215.93 244.513H152.62L128.281 216.257L98.5713 181.756L127.255 148.451L141.709 131.669L171.419 166.17L156.965 182.952L184.329 214.714L211.594 182.952L197.185 166.17L184.329 151.181L154.619 116.689L184.329 82.1875L213.932 116.689L226.797 131.669L241.197 148.451L269.783 181.756Z" fill="#151518"/>
</svg>
