<svg width="481" height="495" viewBox="0 0 481 495" fill="none" xmlns="http://www.w3.org/2000/svg">
<g filter="url(#filter0_f_154_139)">
<circle cx="240.769" cy="236.122" r="184.665" fill="#3A3A3A" fill-opacity="0.5"/>
</g>
<path d="M241.128 404.25L44.0918 175.487H437.445L241.128 404.25Z" stroke="#7F7F7F"/>
<path d="M241.128 404.25L44.0918 175.487H437.445L241.128 404.25Z" stroke="#7F7F7F"/>
<path d="M241.128 297.068L44.0918 68.3055H437.445L241.128 297.068Z" stroke="#7F7F7F"/>
<path d="M241.128 332.975L44.0918 104.212H437.445L241.128 332.975Z" stroke="#7F7F7F"/>
<path d="M241.128 265.008L44.0918 36.2452H437.445L241.128 265.008Z" stroke="#7F7F7F"/>
<path d="M241.128 191.191L44.0918 419.954H437.445L241.128 191.191Z" stroke="#7F7F7F"/>
<path d="M241.128 265.007L44.0918 493.77H437.445L241.128 265.007Z" stroke="#7F7F7F"/>
<path d="M241.205 86.8643L1.76562 364.858H479.77L241.205 86.8643Z" stroke="#7F7F7F"/>
<path d="M241.128 158.114L44.0918 386.877H437.445L241.128 158.114Z" stroke="#7F7F7F"/>
<g filter="url(#filter1_d_154_139)">
<path d="M180.116 210.288L164.326 228.623L132.98 265.008L101.692 228.671L35.1484 152.196H97.822L133.028 192.286L148.828 173.951L180.116 210.288Z" fill="black"/>
<path d="M441.697 157.069L380.33 228.573L349.071 265.008L317.841 228.622L302.109 210.288L333.368 173.853L349.1 192.188L379.248 157.069H441.697Z" fill="black"/>
<path d="M319.323 157.488L288.055 193.913L256.435 157.069L241.22 139.339L225.946 157.069L194.22 193.913L162.922 157.586L163.37 157.069L226.044 84.2976H256.513L318.963 157.069L319.323 157.488Z" fill="black"/>
<path d="M334.579 281.89L302.239 319.582L275.746 350.451H206.581L179.991 319.582L147.533 281.89L178.87 245.505L194.66 227.17L227.118 264.862L211.328 283.197L241.222 317.896L271.009 283.197L255.267 264.862L241.222 248.487L208.764 210.805L241.222 173.113L273.563 210.805L287.618 227.17L303.35 245.505L334.579 281.89Z" fill="black"/>
</g>
<path d="M184.007 205.359L168.168 223.75L136.726 260.247L105.342 223.799L43.4844 151.978H106.349L136.775 187.302L152.623 168.911L184.007 205.359Z" fill="white"/>
<path d="M446.387 151.978L384.832 223.701L353.478 260.247L322.153 223.75L306.373 205.359L337.727 168.814L353.507 187.204L383.747 151.978H446.387Z" fill="white"/>
<path d="M323.639 152.398L292.275 188.934L260.559 151.978L245.297 134.193L229.977 151.978L198.153 188.934L166.76 152.496L167.209 151.978L230.075 78.9836H260.637L323.277 151.978L323.639 152.398Z" fill="white"/>
<path d="M338.94 277.18L306.5 314.987L279.927 345.95H210.55L183.879 314.987L151.322 277.18L182.755 240.683L198.593 222.293L231.15 260.1L215.312 278.49L245.297 313.296L275.175 278.49L259.386 260.1L245.297 243.675L212.74 205.878L245.297 168.071L277.737 205.878L291.835 222.293L307.615 240.683L338.94 277.18Z" fill="white"/>
<defs>
<filter id="filter0_f_154_139" x="5.10352" y="0.457031" width="471.33" height="471.331" filterUnits="userSpaceOnUse" color-interpolation-filters="sRGB">
<feFlood flood-opacity="0" result="BackgroundImageFix"/>
<feBlend mode="normal" in="SourceGraphic" in2="BackgroundImageFix" result="shape"/>
<feGaussianBlur stdDeviation="25.5" result="effect1_foregroundBlur_154_139"/>
</filter>
<filter id="filter1_d_154_139" x="31.1484" y="84.2976" width="414.549" height="274.154" filterUnits="userSpaceOnUse" color-interpolation-filters="sRGB">
<feFlood flood-opacity="0" result="BackgroundImageFix"/>
<feColorMatrix in="SourceAlpha" type="matrix" values="0 0 0 0 0 0 0 0 0 0 0 0 0 0 0 0 0 0 127 0" result="hardAlpha"/>
<feOffset dy="4"/>
<feGaussianBlur stdDeviation="2"/>
<feComposite in2="hardAlpha" operator="out"/>
<feColorMatrix type="matrix" values="0 0 0 0 0 0 0 0 0 0 0 0 0 0 0 0 0 0 0.25 0"/>
<feBlend mode="normal" in2="BackgroundImageFix" result="effect1_dropShadow_154_139"/>
<feBlend mode="normal" in="SourceGraphic" in2="effect1_dropShadow_154_139" result="shape"/>
</filter>
</defs>
</svg>
