<svg width="403" height="267" viewBox="0 0 403 267" fill="none" xmlns="http://www.w3.org/2000/svg">
<path d="M140.523 126.376L124.684 144.766L93.2417 181.263L61.8581 144.815L0 72.9941H62.8651L93.2906 108.318L109.139 89.9276L140.523 126.376Z" fill="white"/>
<path d="M402.903 72.9941L341.348 144.717L309.993 181.263L278.668 144.766L262.889 126.376L294.243 89.8299L310.023 108.22L340.263 72.9941H402.903Z" fill="white"/>
<path d="M280.155 73.4143L248.79 109.95L217.074 72.9939L201.813 55.2098L186.492 72.9939L154.669 109.95L123.275 73.5121L123.725 72.9939L186.59 0H217.153L279.793 72.9939L280.155 73.4143Z" fill="white"/>
<path d="M295.455 198.197L263.016 236.004L236.442 266.967H167.066L140.395 236.004L107.838 198.197L139.27 161.7L155.109 143.31L187.666 181.117L171.827 199.507L201.813 234.312L231.691 199.507L215.901 181.117L201.813 164.691L169.256 126.894L201.813 89.0872L234.252 126.894L248.351 143.31L264.13 161.7L295.455 198.197Z" fill="white"/>
</svg>
