<svg width="91" height="91" viewBox="0 0 91 91" fill="none" xmlns="http://www.w3.org/2000/svg">
<g clip-path="url(#clip0_169_1394)">
<path d="M71.3328 9.8623C66.8792 9.8623 63.2559 13.4856 63.2559 17.9392C63.2559 22.3928 66.8792 26.0161 71.3328 26.0161C75.7864 26.0161 79.4097 22.3928 79.4097 17.9392C79.4097 13.4856 75.7864 9.8623 71.3328 9.8623ZM71.3328 21.4007C69.4238 21.4007 67.8712 19.8479 67.8712 17.9392C67.8712 16.0305 69.4238 14.4777 71.3328 14.4777C73.2417 14.4777 74.7943 16.0305 74.7943 17.9392C74.7943 19.8479 73.2417 21.4007 71.3328 21.4007Z" fill="white"/>
<path d="M45.9483 25.2432C34.7057 25.2432 25.5591 34.3898 25.5591 45.6324C25.5591 56.875 34.7057 66.0216 45.9483 66.0216C57.1909 66.0216 66.3375 56.875 66.3375 45.6324C66.3375 34.3898 57.1909 25.2432 45.9483 25.2432ZM45.9483 60.1961C37.9178 60.1961 31.3846 53.6628 31.3846 45.6324C31.3846 37.6019 37.9178 31.0686 45.9483 31.0686C53.9787 31.0686 60.512 37.6019 60.512 45.6324C60.512 53.6628 53.9787 60.1961 45.9483 60.1961Z" fill="white"/>
<path d="M67.8712 -0.521973H24.0251C11.3005 -0.521973 0.948242 9.83031 0.948242 22.5549V67.5548C0.948242 80.2794 11.3005 90.6317 24.0251 90.6317H67.8712C80.596 90.6317 90.948 80.2794 90.948 67.5548V22.5549C90.948 9.83031 80.596 -0.521973 67.8712 -0.521973ZM86.3327 67.5548C86.3327 77.7345 78.0508 86.0163 67.8712 86.0163H24.0251C13.8454 86.0163 5.56362 77.7345 5.56362 67.5548V22.5549C5.56362 12.3752 13.8454 4.0934 24.0251 4.0934H67.8712C78.0508 4.0934 86.3327 12.3752 86.3327 22.5549V67.5548Z" fill="white"/>
</g>
<defs>
<clipPath id="clip0_169_1394">
<rect width="90" height="90" fill="white" transform="translate(0.948242 0.51416)"/>
</clipPath>
</defs>
</svg>
