<svg width="91" height="91" viewBox="0 0 91 91" fill="none" xmlns="http://www.w3.org/2000/svg">
<g clip-path="url(#clip0_169_1388)">
<path d="M89.2535 33.262C87.1739 25.8956 83.2036 19.1307 77.7725 13.6991C71.9518 7.87943 64.6561 3.76516 56.6742 1.80062C56.6728 1.80043 56.6717 1.79986 56.6703 1.79966C53.1735 0.946747 49.5711 0.51416 45.9633 0.51416C33.938 0.51416 22.6333 5.19678 14.1313 13.6993C8.5644 19.2668 4.54378 26.2051 2.50455 33.7638C0.527367 41.0917 0.433534 48.8633 2.23301 56.2383C2.2332 56.2391 2.23339 56.2399 2.23358 56.2406C4.18913 64.2141 8.30339 71.5102 14.1315 77.3405C19.5625 82.7713 26.3269 86.7413 33.6937 88.8212C37.7277 89.9598 41.8391 90.5145 45.9212 90.5142C57.7059 90.5134 69.2253 85.8876 77.7729 77.3405C83.5367 71.5767 87.6247 64.3748 89.5954 56.5129C91.5084 48.8809 91.3902 40.8408 89.2535 33.262ZM57.781 6.07229C64.2932 8.03128 70.2339 11.5774 75.0646 16.4073C79.5111 20.8543 82.8827 26.2782 84.9064 32.1973C78.6618 33.1747 72.6368 35.0722 66.967 37.8554C61.3365 40.6195 56.1847 44.1918 51.6241 48.4838L41.6286 38.4883C45.8126 34.0432 49.315 29.0348 52.0496 23.573C54.8165 18.0463 56.7387 12.1683 57.781 6.07229ZM45.9633 4.34405C48.6818 4.34405 51.3964 4.61234 54.0566 5.14259C53.0894 10.9686 51.2656 16.584 48.6249 21.8583C46.0746 26.9525 42.8151 31.6278 38.9215 35.7812L18.2243 15.084C25.825 8.14369 35.6017 4.34405 45.9633 4.34405ZM6.20212 34.7613C7.90163 28.4622 11.1109 22.6366 15.5208 17.7967L36.2114 38.4872C32.0545 42.385 27.3807 45.6491 22.2902 48.1998C17.0126 50.8443 11.3989 52.6631 5.58014 53.6227C4.33792 47.3886 4.54454 40.905 6.20212 34.7613ZM32.627 84.4735C26.7085 82.4495 21.2854 79.0783 16.8398 74.6327C12.0046 69.7956 8.45869 63.8566 6.50545 57.3544C12.5967 56.3195 18.4742 54.3958 24.006 51.6243C29.4641 48.8893 34.474 45.3871 38.9228 41.1989L48.916 51.1921C44.6196 55.7563 41.045 60.9079 38.2807 66.5346C35.4931 72.2088 33.5972 78.2334 32.627 84.4735ZM36.3351 85.5529C38.0785 73.7494 43.4528 62.6312 51.6258 53.9017L73.6785 75.9544C63.6139 85.1219 49.6007 88.7289 36.3351 85.5529ZM85.8804 55.5819C84.2326 62.1546 80.9655 68.2244 76.3872 73.2471L54.3318 51.1917C63.0446 43.0363 74.1643 37.6651 85.9849 35.9051C87.5286 42.3651 87.4968 49.1327 85.8804 55.5819Z" fill="white"/>
</g>
<defs>
<clipPath id="clip0_169_1388">
<rect width="90" height="90" fill="white" transform="translate(0.948242 0.51416)"/>
</clipPath>
</defs>
</svg>
