<svg width="91" height="91" viewBox="0 0 91 91" fill="none" xmlns="http://www.w3.org/2000/svg">
<g clip-path="url(#clip0_169_1392)">
<path fill-rule="evenodd" clip-rule="evenodd" d="M45.9438 0.106445C21.0976 0.106445 0.947754 20.2535 0.947754 45.108C0.947754 64.9899 13.8405 81.8551 31.7223 87.8056C33.9737 88.22 34.7942 86.8304 34.7942 85.637C34.7942 84.5707 34.7555 81.7391 34.7334 77.9848C22.2164 80.7031 19.5755 71.9515 19.5755 71.9515C17.5284 66.7524 14.5781 65.3683 14.5781 65.3683C10.4923 62.5782 14.8875 62.6335 14.8875 62.6335C19.4042 62.9511 21.78 67.2717 21.78 67.2717C25.7939 74.1477 32.3135 72.1614 34.8771 71.0094C35.2859 68.1032 36.449 66.1198 37.7335 64.9954C27.7415 63.86 17.2356 59.998 17.2356 42.7543C17.2356 37.8425 18.9898 33.8231 21.8684 30.6793C21.4043 29.5412 19.86 24.9636 22.3104 18.7701C22.3104 18.7701 26.0867 17.5601 34.6837 23.3835C38.2722 22.3835 42.1232 21.8862 45.9493 21.8669C49.7726 21.8862 53.6208 22.3835 57.2149 23.3835C65.8063 17.5601 69.5772 18.7701 69.5772 18.7701C72.0331 24.9636 70.4888 29.5412 70.0275 30.6793C72.9115 33.8231 74.6519 37.8425 74.6519 42.7543C74.6519 60.0422 64.1295 63.8462 54.107 64.9595C55.7203 66.349 57.1596 69.095 57.1596 73.294C57.1596 79.3081 57.1044 84.1618 57.1044 85.637C57.1044 86.8415 57.9165 88.2421 60.1984 87.8028C78.0664 81.8385 90.9481 64.9844 90.9481 45.108C90.9481 20.2535 70.7982 0.106445 45.9438 0.106445Z" fill="white"/>
</g>
<defs>
<clipPath id="clip0_169_1392">
<rect width="90" height="90" fill="white" transform="translate(0.948242 0.0141602)"/>
</clipPath>
</defs>
</svg>
